<svg width="24" height="24" viewBox="0 0 24 24" fill="none" xmlns="http://www.w3.org/2000/svg">
<path d="M11.9531 24C9.32812 24 8.39062 23.4844 8.39062 22.3594V20.4844C7.64062 20.2031 6.98438 19.7812 6.375 19.3594L4.78125 20.25C4.54688 20.3906 4.3125 20.4375 4.07812 20.4375C2.34375 20.4375 0.46875 16.125 0.46875 15.375C0.46875 14.8594 0.75 14.3438 1.21875 14.1094L2.8125 13.1719C2.8125 12.7969 2.76562 12.375 2.76562 12C2.76562 11.5781 2.8125 11.2031 2.85938 10.8281L1.26562 9.9375C0.796875 9.70312 0.515625 9.1875 0.515625 8.67188C0.515625 8.10938 2.29688 3.5625 4.07812 3.5625C4.35938 3.5625 4.59375 3.65625 4.82812 3.79688L6.42188 4.6875C7.03125 4.26562 7.6875 3.84375 8.39062 3.5625V1.6875C8.39062 0.234375 10.0781 0 12 0C13.8281 0 15.5156 0.234375 15.5156 1.6875V3.5625C16.2188 3.84375 16.875 4.21875 17.4844 4.6875L19.0781 3.79688C19.3125 3.65625 19.5469 3.60938 19.8281 3.60938C21.5156 3.60938 23.3906 7.92188 23.3906 8.67188C23.3906 9.1875 23.1094 9.70312 22.6406 9.9375L21.0469 10.875C21.0938 11.25 21.1406 11.625 21.1406 12C21.1406 12.375 21.0938 12.7969 21.0469 13.1719L22.6406 14.1094C23.1094 14.3438 23.3906 14.8594 23.3906 15.375C23.3906 15.9375 21.6094 20.4375 19.8281 20.4375C19.5469 20.4375 19.3125 20.3906 19.0781 20.25L17.4844 19.3594C16.875 19.7812 16.2188 20.2031 15.5156 20.4844V22.3594C15.5625 23.4844 14.625 24 11.9531 24ZM6.5625 17.5312C8.25 18.9844 9.04688 19.125 9.89062 19.4531V22.3594C10.5938 22.4531 11.25 22.5 11.9531 22.5C12.6562 22.5 13.3594 22.4531 14.0625 22.3125L14.0156 19.4531C14.8125 19.1719 15.7031 18.9375 17.3438 17.5312L19.875 18.9844C20.7656 17.9531 21.4688 16.7344 21.8906 15.375L19.4531 13.9688C19.5469 13.2656 19.6406 12.75 19.6406 12.0938C19.6406 11.625 19.5938 11.0156 19.4531 10.0781L21.9375 8.67188C21.4688 7.35938 20.7656 6.14062 19.8281 5.0625L17.3438 6.51562C15.7031 5.0625 14.9062 4.92188 14.0156 4.59375V1.6875C13.3594 1.59375 12.7031 1.54688 12 1.54688C11.2969 1.54688 10.5938 1.59375 9.84375 1.73438L9.89062 4.59375C9.14062 4.875 8.25 5.0625 6.5625 6.51562L4.07812 5.0625C3.1875 6.14062 2.48438 7.35938 2.01562 8.71875L4.5 10.0781C4.40625 10.7812 4.3125 11.2969 4.3125 11.9062C4.3125 12.4219 4.35938 13.0312 4.5 13.9219L2.01562 15.375C2.48438 16.6406 3.1875 17.8594 4.125 18.9375L6.5625 17.5312ZM12 16.5C9.51562 16.5 7.5 14.4844 7.5 12C7.5 9.51562 9.51562 7.5 12 7.5C14.4375 7.5 16.5 9.51562 16.5 12C16.5 14.4844 14.4375 16.5 12 16.5ZM12 9C10.3125 9 9 10.3125 9 12C9 13.6406 10.3125 15 12 15C13.6406 15 15 13.6406 15 12C15 10.3125 13.6406 9 12 9Z" fill="black"/>
</svg>
