<svg width="28" height="24" viewBox="0 0 28 24" fill="none" xmlns="http://www.w3.org/2000/svg">
<path d="M27.2188 11.4375L14.5156 0.1875C14.3281 0.09375 14.1406 0.046875 14 0.046875C13.8125 0.046875 13.625 0.09375 13.4844 0.1875L0.734375 11.4375C0.546875 11.625 0.5 11.8125 0.5 12C0.5 12.4219 0.828125 12.75 1.25 12.75C1.39062 12.75 1.57812 12.7031 1.71875 12.5625L3.5 11.0156V20.25C3.5 22.3125 5.14062 23.9531 7.25 23.9531H20.7031C22.7656 23.9531 24.4531 22.2656 24.4531 20.25V11.0156L26.2344 12.5625C26.375 12.7031 26.5625 12.75 26.7031 12.75C27.0781 12.75 27.4531 12.4219 27.4531 12.0469C27.4531 11.8125 27.4062 11.625 27.2188 11.4375ZM16.25 22.5H11.75V15H16.25V22.5ZM22.9531 9.75V20.25C22.9531 21.5156 21.9219 22.5 20.7031 22.5H17.7031V14.7656C17.75 14.0625 17.1875 13.5 16.4844 13.5H11.5156C10.8125 13.5 10.25 14.0625 10.25 14.7656V22.5H7.25C5.98438 22.5 5 21.5156 5 20.25V9.75C5 9.75 4.95312 9.75 4.95312 9.70312L14 1.78125L23 9.70312C23 9.75 22.9531 9.75 22.9531 9.75Z" fill="black"/>
</svg>
