<svg width="30" height="25" viewBox="0 0 30 25" fill="none" xmlns="http://www.w3.org/2000/svg">
<path d="M19.5 12V3C19.5 1.35938 18.1406 0 16.5 0H3C1.3125 0 0 1.35938 0 3V12C0 13.6875 1.3125 15 3 15L4.5 15.0469V17.4375C4.5 17.8125 4.73438 18 5.0625 18C5.15625 18 5.25 18 5.39062 17.9062L10.5 15H16.5C18.1406 15 19.5 13.6875 19.5 12ZM9.89062 12.75L6.75 14.5781V12.75H3C2.57812 12.75 2.25 12.4219 2.25 12V3C2.25 2.625 2.57812 2.25 3 2.25H16.5C16.875 2.25 17.25 2.625 17.25 3V12C17.25 12.4219 16.875 12.75 16.5 12.75H9.89062ZM27 6H21V12C21 14.4844 18.9375 16.5 16.5 16.5H12V18C12 19.6875 13.3125 21 14.9531 21H20.8125L24.7031 23.9062C25.0312 24.1406 25.5 23.9531 25.5 23.5781V21H27C28.6406 21 30 19.6875 30 18.0469V9C30 7.35938 28.6406 6 27 6Z" fill="#615EF0"/>
</svg>
