<svg width="25" height="24" viewBox="0 0 25 24" fill="none" xmlns="http://www.w3.org/2000/svg">
<path d="M23.7656 22.7344L17.1094 16.125C18.6094 14.3906 19.4531 12.1875 19.4531 9.75C19.4531 4.40625 15.0469 0 9.70312 0C4.3125 0 0 4.40625 0 9.75C0 15.1406 4.35938 19.5 9.70312 19.5C12.0938 19.5 14.2969 18.6562 16.0312 17.1562L22.6406 23.8125C22.8281 23.9531 23.0156 24 23.25 24C23.4375 24 23.625 23.9531 23.7656 23.8125C24.0469 23.5312 24.0469 23.0156 23.7656 22.7344ZM9.75 18C5.15625 18 1.5 14.2969 1.5 9.75C1.5 5.20312 5.15625 1.5 9.75 1.5C14.2969 1.5 18 5.20312 18 9.75C18 14.3438 14.2969 18 9.75 18Z" fill="black"/>
</svg>
