<svg width="15" height="15" viewBox="0 0 15 15" fill="none" xmlns="http://www.w3.org/2000/svg">
<path opacity="0.4" d="M13.7812 13.6289L10.1172 9.96484C10.9102 9.00781 11.3477 7.77734 11.3477 6.4375C11.3477 3.32031 8.77734 0.75 5.66016 0.75C2.51562 0.75 0 3.32031 0 6.4375C0 9.58203 2.54297 12.125 5.66016 12.125C6.97266 12.125 8.20312 11.6875 9.1875 10.8945L12.8516 14.5586C12.9883 14.6953 13.1523 14.75 13.3438 14.75C13.5078 14.75 13.6719 14.6953 13.7812 14.5586C14.0547 14.3125 14.0547 13.9023 13.7812 13.6289ZM1.3125 6.4375C1.3125 4.03125 3.25391 2.0625 5.6875 2.0625C8.09375 2.0625 10.0625 4.03125 10.0625 6.4375C10.0625 8.87109 8.09375 10.8125 5.6875 10.8125C3.25391 10.8125 1.3125 8.87109 1.3125 6.4375Z" fill="black"/>
</svg>
